Coordinates
version=1
nRows=5
nColumns=40
inDegrees=yes

Units are S.I. units (second, meters, Newtons, ...)
Angles are in degrees.

endheader
time	pelvis_tilt	pelvis_list	pelvis_rotation	pelvis_tx	pelvis_ty	pelvis_tz	hip_flexion_r	hip_adduction_r	hip_rotation_r	knee_angle_r	knee_angle_r_beta	ankle_angle_r	subtalar_angle_r	mtp_angle_r	hip_flexion_l	hip_adduction_l	hip_rotation_l	knee_angle_l	knee_angle_l_beta	ankle_angle_l	subtalar_angle_l	mtp_angle_l	lumbar_extension	lumbar_bending	lumbar_rotation	arm_flex_r	arm_add_r	arm_rot_r	elbow_flex_r	pro_sup_r	wrist_flex_r	wrist_dev_r	arm_flex_l	arm_add_l	arm_rot_l	elbow_flex_l	pro_sup_l	wrist_flex_l	wrist_dev_l
     38.55250000	     -1.22033068	     -3.33593574	    -12.14488713	      1.09098627	      0.92506684	      0.46112902	     19.13845804	     -1.54474741	     -3.39956036	     25.32520375	     25.32520375	     10.07453874	      1.34381069	     -1.89373028	     -3.51407479	     -3.66350090	    -17.41622480	     15.58821646	     15.58821646	     19.64650206	    -11.36461415	      0.63740753	     -7.99927852	      6.01500944	     -0.77225656	    -22.50101718	    -13.78992193	     -5.34059070	     34.74255220	     44.32108132	      0.00000000	      0.00000000	     46.18466222	    -27.22640249	     -6.71251015	     65.90256298	     47.12529100	      0.00000000	      0.00000000
     38.57428571	     -1.33954525	     -3.46727318	    -11.38858508	      1.09169312	      0.92465995	      0.46647797	     19.02423445	     -1.01522049	     -3.22227905	     25.84684934	     25.84684934	     10.46744030	     -0.49209860	     -1.89632767	     -3.36816329	     -4.46533639	    -17.12873220	     16.38303200	     16.38303200	     20.27938016	    -10.63633024	      1.41066593	     -7.90996353	      5.99849040	     -1.05965227	    -21.33403373	    -13.99765489	     -5.17052039	     34.65951408	     44.35809485	      0.00000000	      0.00000000	     44.56100900	    -26.83877042	     -6.89203879	     65.71768812	     47.13440296	      0.00000000	      0.00000000
     38.59607143	     -1.34960558	     -3.60448735	    -10.56856692	      1.09243169	      0.92448395	      0.47163418	     18.66734763	     -0.65764651	     -3.63403662	     26.15455448	     26.15455448	     10.91979267	     -1.27368567	     -2.01237441	     -3.16376353	     -5.27016127	    -16.56439302	     17.41767046	     17.41767046	     20.56733111	    -10.37623685	      1.69888390	     -7.99488628	      5.99018481	     -1.02372559	    -20.18213280	    -14.15997286	     -5.06827223	     34.65751338	     44.38242301	      0.00000000	      0.00000000	     42.88738819	    -25.99998167	     -6.81192437	     65.40911562	     47.11726809	      0.00000000	      0.00000000
     38.61785714	     -1.39557442	     -3.69015875	     -9.68907634	      1.09302166	      0.92431649	      0.47677383	     18.33272909	     -0.32430641	     -4.03350662	     26.37956502	     26.37956502	     11.28675171	     -2.23654137	     -2.05551747	     -2.54419608	     -6.15139803	    -15.89412254	     19.09115890	     19.09115890	     20.80548266	    -10.22116804	      1.77370862	     -8.01384113	      5.91575703	     -1.06709364	    -18.63223902	    -14.27026345	     -4.93727323	     34.54705181	     44.41891080	      0.00000000	      0.00000000	     40.89387343	    -25.06862544	     -6.79548911	     64.93501943	     47.10123290	      0.00000000	      0.00000000
     38.63964286	     -1.33202709	     -3.83141576	     -8.76665903	      1.09353778	      0.92434413	      0.48185747	     17.81260637	      0.03218160	     -4.52442190	     26.49380567	     26.49380567	     11.75827318	     -2.90046316	     -2.14879464	     -1.68421225	     -7.15506643	    -15.01636813	     21.36678529	     21.36678529	     20.64693908	    -10.50611219	      1.40833990	     -8.17302928	      5.91185171	     -1.00215564	    -17.02878214	    -14.41143399	     -4.86213712	     34.56720427	     44.44406394	      0.00000000	      0.00000000	     38.77053441	    -23.88734348	     -6.57821622	     64.24964358	     47.06303973	      0.00000000	      0.00000000
